# AST/ASF file generated using VICON BodyLanguage
# -----------------------------------------------
:version 1.10
:name VICON
:units
  mass 1.0
  length 0.45
  angle deg
:documentation
   .ast/.asf automatically generated from VICON data using
   VICON BodyBuilder and BodyLanguage model FoxedUp or BRILLIANT.MOD
:root
   order TX TY TZ RX RY RZ
   axis XYZ
   position 0 0 0  
   orientation 0 0 0 
:bonedata
  begin
     id 1 
     name lhipjoint
     direction 0.734343 -0.627749 0.258209 
     length 2.5437 
     axis 0 0 0  XYZ
  end
  begin
     id 2 
     name lfemur
     direction 0.34202 -0.939693 0  
     length 6.7391  
     axis 0 0 20  XYZ
    dof rx ry rz
    limits (-160.0 20.0)
           (-70.0 70.0)
           (-60.0 70.0)
  end
  begin
     id 3 
     name ltibia
     direction 0.34202 -0.939693 0   
     length 7.21536   
     axis 0 0 20   XYZ
    dof rx
    limits (-10.0 170.0)
  end
  begin
     id 4 
     name lfoot
     direction 0.0489572 -0.134509 0.989702   
     length 1.61313   
     axis -90 7.62852e-016 20   XYZ
    dof rx rz
    limits (-45.0 90.0)
           (-70.0 20.0)
  end
  begin
     id 5 
     name ltoes
     direction 1.53451e-011 -4.21692e-011 1   
     length 0.823104   
     axis -90 7.62852e-016 20   XYZ
    dof rx
    limits (-90.0 20.0)
  end
  begin
     id 6 
     name rhipjoint
     direction -0.746398 -0.615468 0.253157   
     length 2.59446  
     axis 0 0 0  XYZ 
  end
  begin
     id 7 
     name rfemur
     direction -0.34202 -0.939693 0   
     length 6.7075   
     axis 0 0 -20   XYZ
    dof rx ry rz
    limits (-160.0 20.0)
           (-70.0 70.0)
           (-70.0 60.0)
  end
  begin
     id 8 
     name rtibia
     direction -0.34202 -0.939693 0   
     length 7.27262   
     axis 0 0 -20   XYZ
    dof rx
    limits (-10.0 170.0)
 end
 begin
     id 9 
     name rfoot
     direction -0.0455203 -0.125066 0.991104   
     length 1.91095  
     axis -90 -7.62852e-016 -20   XYZ
    dof rx rz
    limits (-45.0 90.0)
           (-20.0 70.0)
  end
  begin
     id 10 
     name rtoes
     direction -1.53601e-011 -4.21913e-011 1   
     length 0.969037   
     axis -90 -7.62852e-016 -20   XYZ
    dof rx
    limits (-90.0 20.0)
  end
  begin
     id 11 
     name lowerback
     direction 0.0181546 0.999122 -0.0377542   
     length 1.99916   
     axis 0 0 0   XYZ
    dof rx ry rz
    limits (-20.0 45.0)
           (-30.0 30.0)
           (-30.0 30.0)
  end
  begin
     id 12 
     name upperback
     direction 0.0203486 0.99589 0.0882534   
     length 1.951   
     axis 0 0 0   XYZ
    dof rx ry rz
    limits (-20.0 45.0)
           (-30.0 30.0)
           (-30.0 30.0)
  end
  begin
     id 13 
     name thorax
     direction 0.0131685 0.994241 0.106355   
     length 1.97461   
     axis 0 0 0   XYZ
    dof rx ry rz
    limits (-20.0 45.0)
           (-30.0 30.0)
           (-30.0 30.0)
  end
  begin
     id 14 
     name lowerneck
     direction -0.0281395 0.999325 0.023617   
     length 1.7959   
     axis 0 0 0   XYZ
    dof rx ry rz
    limits (-20.0 45.0)
           (-30.0 30.0)
           (-30.0 30.0)
  end
  begin
     id 15 
     name upperneck
     direction 0.0288721 0.991984 -0.123019   
     length 1.79917   
     axis 0 0 0   XYZ
    dof rx ry rz
    limits (-20.0 45.0)
           (-30.0 30.0)
           (-30.0 30.0)
  end
  begin
     id 16
     name head
     direction 0.0133797 0.998944 -0.0439492  
     length 1.80902  
     axis 0 0 0   XYZ
    dof rx ry rz
    limits (-20.0 45.0)
           (-30.0 30.0)
           (-30.0 30.0)
  end
  begin
     id 17 
     name lclavicle
     direction 0.919195 0.377107 0.113449  
     length 3.17815  
     axis 0 0 0   XYZ
    dof ry rz
    limits (-20.0 10.0)
           (0.0 20.0)
  end
  begin
     id 18 
     name lhumerus
     direction 1 -4.48959e-011 2.13129e-027   
     length 4.84137   
     axis 180 -30 -90   XYZ
    dof rx ry rz
    limits (-60.0 90.0)
           (-90.0 90.0)
           (-90.0 90.0)
  end
  begin
     id 19
     name lradius
     direction 1 -4.48957e-011 -6.30627e-028   
     length 3.2452   
     axis 180 -30 -90   XYZ
    dof rx
    limits (-10.0 170.0)
  end
  begin
     id 20
     name lwrist
     direction 1 -4.4901e-011 9.13299e-027   
     length 1.6226   
     axis -6.84618e-015 90 90   XYZ
    dof ry
    limits (-180.0 0.0)
 end
  begin
     id 21 
     name lhand
     direction 1 -4.48816e-011 1.82293e-026   
     length 0.521221   
     axis -1.16502e-014 90 90   XYZ
    dof rx rz
    limits (-90.0 90.0)
           (-45.0 45.0)
  end
  begin
     id 22 
     name lfingers
     direction 1 -4.49108e-011 3.65687e-026   
     length 0.420221   
     axis -2.33008e-014 90 90   XYZ
    dof rx
    limits (0.0 90.0)
  end
  begin
     id 23
     name lthumb
     direction 0.707107 -6.34943e-011 0.707107   
     length 0.603356   
     axis -90 45 5.69224e-014   XYZ
    dof rx rz
    limits (-45.0 45.0)
           (-45.0 45.0)
  end
  begin
     id 24 
     name rclavicle
     direction -0.90847 0.38596 0.160368   
     length 3.12973  
     axis 0 0 0   XYZ 
    dof ry rz
    limits (-10.0 20.0)
           (-20.0 0.0)
  end
  begin
     id 25 
     name rhumerus
     direction -1 -4.48974e-011 4.47268e-028  
     length 4.72284   
     axis 180 30 90   XYZ
    dof rx ry rz
    limits (-90.0 60.0)
           (-90.0 90.0)
           (-90.0 90.0)
  end
  begin
     id 26 
     name rradius
     direction -1 -4.48969e-011 3.43203e-027   
     length 3.23459   
     axis 180 30 90   XYZ
    dof rx
    limits (-10.0 170.0)
  end
  begin
     id 27 
     name rwrist
     direction -1 -4.48969e-011 9.12911e-027   
     length 1.6173   
     axis -6.84618e-015 -90 -90   XYZ
    dof ry
    limits (-180.0 0.0)
  end
  begin
     id 28
     name rhand
     direction -1 -4.49194e-011 1.83006e-026   
     length 0.307416   
     axis -1.16502e-014 -90 -90   XYZ
    dof rx rz
    limits (-90.0 90.0)
           (-45.0 45.0)
  end
  begin
     id 29
     name rfingers
     direction -1 -4.48423e-011 3.63103e-026   
     length 0.247847   
     axis -2.33008e-014 -90 -90   XYZ
    dof rx
    limits (0.0 90.0)
  end
  begin
     id 30
     name rthumb
     direction -0.707107 -6.34802e-011 0.707107   
     length 0.35586   
     axis -90 -45 -5.69224e-014   XYZ
    dof rx rz
    limits (-45.0 45.0)
           (-45.0 45.0)
  end
:hierarchy
  begin
    root lhipjoint rhipjoint lowerback
    lhipjoint lfemur
    lfemur ltibia
    ltibia lfoot
    lfoot ltoes
    rhipjoint rfemur
    rfemur rtibia
    rtibia rfoot
    rfoot rtoes
    lowerback upperback
    upperback thorax
    thorax lowerneck lclavicle rclavicle
    lowerneck upperneck
    upperneck head
    lclavicle lhumerus
    lhumerus lradius
    lradius lwrist
    lwrist lhand lthumb
    lhand lfingers
    rclavicle rhumerus
    rhumerus rradius
    rradius rwrist
    rwrist rhand rthumb
    rhand rfingers
  end

#!OML:ASF H:\Terrain\Patient Classification 1\Animal1\Tuesday\Animal1.ASF
:FULLY-SPECIFIED
:DEGREES
168
root 17.9491 16.4546 -14.4869 13.7416 -31.4979 -1.88385
lowerback 1.66778 0.72409 2.24361
upperback -4.69852 1.14908 2.01596
thorax -5.80301 0.507023 0.760905
lowerneck -9.04441 1.27262 -2.37777
upperneck 9.50261 1.56001 4.20751
head 4.26771 0.922234 1.77715
rclavicle 9.83984e-015 8.74653e-015
rhumerus -32.1371 6.48219 -73.3488
rradius 34.9832
rwrist -45.2141
rhand -2.05096 20.456
rfingers 7.12502
rthumb 23.6245 -8.1126
lclavicle 9.83984e-015 8.74653e-015
lhumerus -37.3455 -0.450334 71.0452
lradius 35.9709
lwrist -2.73428
lhand 28.8804 36.0886
lfingers 7.12502
lthumb 52.6976 55.7705
rfemur -23.4417 18.4676 22.8344
rtibia 24.3631
rfoot -11.491 -41.7784
rtoes 26.2681
lfemur -26.9008 -5.56638 -16.9188
ltibia 33.8299
lfoot -15.2916 15.4513
ltoes -4.79847
169
root 17.9404 16.4506 -14.4546 13.7311 -31.6491 -1.86785
lowerback 1.5461 0.740569 2.33087
upperback -4.79868 1.17117 1.99407
thorax -5.83691 0.512259 0.6894
lowerneck -8.84008 1.27781 -2.4446
upperneck 9.74721 1.55137 4.3297
head 4.30705 0.921095 1.82552
rclavicle -9.74045e-015 6.36111e-015
rhumerus -32.8533 5.14658 -71.3322
rradius 34.7857
rwrist -45.348
rhand -1.65494 20.3356
rfingers 7.12502
rthumb 24.0043 -8.18348
lclavicle -9.74045e-015 6.36111e-015
lhumerus -38.2272 0.96769 68.6456
lradius 36.0053
lwrist -2.35609
lhand 28.9651 36.2669
lfingers 7.12502
lthumb 52.7742 55.9012
rfemur -23.2335 18.3993 22.8299
rtibia 24.1808
rfoot -12.0382 -41.564
rtoes 26.8009
lfemur -26.491 -5.97479 -16.8966
ltibia 33.4284
lfoot -15.4838 16.0097
ltoes -5.15126
170
root 17.9336 16.4521 -14.4113 13.639 -31.7459 -1.72966
lowerback 1.44163 0.725142 2.44693
upperback -4.95286 1.15048 1.90588
thorax -5.93609 0.492166 0.535531
lowerneck -8.6886 1.26368 -2.45095
upperneck 10.2067 1.5079 4.40098
head 4.42313 0.903265 1.84914
rclavicle 8.94531e-016 1.66979e-014
rhumerus -33.7917 3.76414 -69.1585
rradius 34.6019
rwrist -45.5747
rhand -1.36401 20.0102
rfingers 7.12502
rthumb 24.2833 -8.4718
lclavicle 8.94531e-016 1.66979e-014
lhumerus -39.2617 1.98839 66.1248
lradius 35.9552
lwrist -1.55381
lhand 29.3617 36.5712
lfingers 7.12502
lthumb 53.1322 55.9795
rfemur -23.0116 18.1642 22.7285
rtibia 24.1308
rfoot -11.3154 -41.4059
rtoes 25.5826
lfemur -25.9488 -6.38267 -17.0713
ltibia 32.9078
lfoot -15.641 16.4855
ltoes -5.80397
171
root 17.9245 16.4561 -14.3674 13.7387 -31.9445 -1.83558
lowerback 1.23661 0.745077 2.59271
upperback -5.06714 1.17932 1.96003
thorax -5.93794 0.49951 0.511065
lowerneck -8.60085 1.29433 -2.48453
upperneck 10.5961 1.53985 4.40042
head 4.52621 0.917719 1.85969
rclavicle 1.60519e-014 -2.54444e-014
rhumerus -34.654 2.23922 -66.6281
rradius 34.3274
rwrist -45.7916
rhand -0.570049 19.6882
rfingers 7.12502
rthumb 25.0443 -8.68987
lclavicle 1.60519e-014 -2.54444e-014
lhumerus -40.2796 3.03673 63.5704
lradius 35.838
lwrist -0.628285
lhand 29.1714 36.3812
lfingers 7.12502
lthumb 52.9605 55.8986
rfemur -22.9062 17.8201 22.8551
rtibia 24.1799
rfoot -10.4638 -40.915
rtoes 24.7124
lfemur -25.3849 -6.60343 -17.0539
ltibia 32.3083
lfoot -16.0361 16.8142
ltoes -4.33262
172
root 17.9122 16.4555 -14.3281 13.9438 -32.2268 -2.04398
lowerback 0.968496 0.788356 2.60589
upperback -5.1611 1.23545 2.13478
thorax -5.88706 0.530354 0.685304
lowerneck -8.56776 1.35794 -2.55241
upperneck 10.8804 1.62993 4.3623
head 4.60423 0.957253 1.86736
rclavicle -9.55657e-014 -2.06736e-014
rhumerus -35.6087 1.19841 -63.979
rradius 34.2089
rwrist -46.4581
rhand -0.81658 19.5291
rfingers 7.12502
rthumb 24.808 -8.8817
lclavicle -9.55657e-014 -2.06736e-014
lhumerus -41.463 4.24811 60.993
lradius 35.6554
lwrist 0.127162
lhand 28.478 36.584
lfingers 7.12502
lthumb 52.3336 56.4894
rfemur -22.9445 17.5226 23.0678
rtibia 24.3541
rfoot -10.5718 -40.2953
rtoes 25.2098
lfemur -24.8465 -6.7094 -16.9167
ltibia 31.6153
lfoot -16.6533 17.1864
ltoes -2.53379
173
root 17.9032 16.4479 -14.2887 13.9509 -32.4213 -1.95936
lowerback 0.736947 0.780156 2.45287
upperback -5.206 1.21195 2.204
thorax -5.80603 0.52787 0.846995
lowerneck -8.60091 1.41105 -2.37985
upperneck 11.0619 1.70243 4.12489
head 4.66696 0.986115 1.77264
rclavicle -1.01877e-014 1.35174e-014
rhumerus -36.6922 0.41884 -61.3549
rradius 34.2858
rwrist -47.1563
rhand -1.79749 19.4253
rfingers 7.12502
rthumb 23.8676 -9.11173
lclavicle -1.01877e-014 1.35174e-014
lhumerus -42.5995 5.37453 58.1296
lradius 35.2818
lwrist 0.476477
lhand 27.3959 36.797
lfingers 7.12502
lthumb 51.3512 57.2802
rfemur -23.0365 17.3727 22.9879
rtibia 24.6857
rfoot -11.0705 -40.04
rtoes 25.2079
lfemur -24.281 -7.06192 -17.0334
ltibia 30.8438
lfoot -17.1235 17.8368
ltoes -3.04625
174
root 17.8948 16.4402 -14.2454 13.7564 -32.6557 -1.47503
lowerback 0.42538 0.753036 2.05001
upperback -5.18997 1.14337 2.10172
thorax -5.61446 0.51178 0.973207
lowerneck -8.67952 1.43658 -2.07939
upperneck 11.1515 1.72448 3.88197
head 4.7124 0.995304 1.65164
rclavicle 1.26228e-013 6.36111e-015
rhumerus -37.591 -0.925899 -58.5338
rradius 34.0387
rwrist -47.2664
rhand -2.45412 19.4169
rfingers 7.12502
rthumb 23.2378 -9.20108
lclavicle 1.26228e-013 6.36111e-015
lhumerus -43.5982 6.40374 54.8622
lradius 34.9326
lwrist -0.0164457
lhand 25.9257 36.3189
lfingers 7.12502
lthumb 50.0097 57.5366
rfemur -23.2097 17.2196 22.5155
rtibia 25.1163
rfoot -11.3647 -39.8743
rtoes 24.452
lfemur -23.6564 -7.5748 -17.5613
ltibia 30.0402
lfoot -17.4837 18.8
ltoes -4.05866
175
root 17.8863 16.4343 -14.2001 13.7634 -33.0254 -1.20766
lowerback -0.0692974 0.788432 1.81033
upperback -5.15072 1.16165 2.05251
thorax -5.29283 0.532374 1.06105
lowerneck -8.75567 1.47864 -2.0447
upperneck 11.2152 1.77483 3.88912
head 4.74349 1.02271 1.65296
rclavicle 1.80894e-014 -2.38542e-014
rhumerus -38.4046 -2.5905 -55.398
rradius 33.5244
rwrist -47.2011
rhand -2.87663 19.5077
rfingers 7.12502
rthumb 22.8324 -9.16086
lclavicle 1.80894e-014 -2.38542e-014
lhumerus -44.8716 7.3958 51.4768
lradius 34.8407
lwrist -0.647091
lhand 25.7674 36.467
lfingers 7.12502
lthumb 49.8648 57.7605
rfemur -23.5089 16.9571 22.2147
rtibia 25.583
rfoot -10.5012 -39.5354
rtoes 22.5708
lfemur -23.0742 -7.91416 -17.9506
ltibia 29.2728
lfoot -17.823 19.8425
ltoes -4.24433
176
root 17.8791 16.4332 -14.1532 13.9078 -33.4452 -1.21997
lowerback -0.53033 0.856696 1.80083
upperback -5.11936 1.23616 2.08394
thorax -4.99809 0.571692 1.10183
lowerneck -8.71139 1.56747 -2.01621
upperneck 11.1433 1.90014 3.82518
head 4.711 1.08088 1.63517
rclavicle -1.99033e-014 -1.11319e-014
rhumerus -39.3904 -3.99378 -52.1394
rradius 33.0922
rwrist -47.2683
rhand -3.55856 19.3995
rfingers 7.12502
rthumb 22.1778 -9.34827
lclavicle -1.99033e-014 -1.11319e-014
lhumerus -46.3983 8.58006 47.8686
lradius 34.6446
lwrist -1.15174
lhand 26.2311 36.7565
lfingers 7.12502
lthumb 50.289 57.8261
rfemur -23.7346 16.5938 22.1775
rtibia 25.9539
rfoot -9.10073 -39.1144
rtoes 19.8636
lfemur -22.6027 -8.22662 -18.1
ltibia 28.6642
lfoot -17.7866 20.8338
ltoes -4.24706
177
root 17.8748 16.4325 -14.106 13.8964 -33.6574 -1.08201
lowerback -0.664705 0.852299 1.72918
upperback -5.23057 1.2252 2.0749
thorax -5.03951 0.568101 1.13467
lowerneck -8.34629 1.69555 -1.70695
upperneck 10.8816 2.06657 3.55296
head 4.57099 1.15493 1.50368
rclavicle 3.4837e-014 -2.8625e-014
rhumerus -40.8204 -4.78667 -48.8622
rradius 32.8816
rwrist -47.4548
rhand -4.86591 19.3748
rfingers 7.12502
rthumb 20.9222 -9.51692
lclavicle 3.4837e-014 -2.8625e-014
lhumerus -47.9161 9.50126 44.1201
lradius 34.0218
lwrist -1.36645
lhand 25.0416 36.7269
lfingers 7.12502
lthumb 49.1993 58.3601
rfemur -23.7916 16.1886 22.0375
rtibia 26.1831
rfoot -8.65365 -38.8488
rtoes 18.417
lfemur -22.2221 -8.74246 -18.3422
ltibia 28.2394
lfoot -17.6742 21.6163
ltoes -3.55994
178
root 17.8752 16.4289 -14.059 14.0118 -33.6087 -1.21928
lowerback -0.737187 0.826039 2.00227
upperback -5.35676 1.19672 2.11962
thorax -5.12696 0.541131 1.03034
lowerneck -7.8339 1.81283 -1.43986
upperneck 10.4069 2.21981 3.35794
head 4.34129 1.22417 1.39777
rclavicle -9.93923e-014 1.11319e-014
rhumerus -42.6228 -4.96591 -45.6306
rradius 33.0448
rwrist -48.0088
rhand -6.95635 19.7752
rfingers 7.12502
rthumb 18.9128 -9.32532
lclavicle -9.93923e-014 1.11319e-014
lhumerus -49.2225 10.0874 40.4272
lradius 33.2267
lwrist -1.32179
lhand 23.2331 36.8928
lfingers 7.12502
lthumb 47.5342 59.3201
rfemur -23.7763 15.7989 22.1603
rtibia 26.3504
rfoot -8.77844 -38.6475
rtoes 18.298
lfemur -21.9365 -9.35683 -18.2846
ltibia 27.9681
lfoot -17.706 22.1988
ltoes -2.89852
179
root 17.875 16.4291 -14.0131 14.015 -33.6623 -1.29818
lowerback -0.799249 0.811616 2.16149
upperback -5.37194 1.1796 2.15784
thorax -5.10565 0.526069 0.982424
lowerneck -7.63729 1.88232 -1.46541
upperneck 9.67886 2.33356 3.3371
head 4.53117 1.26287 1.54477
rclavicle -5.77966e-014 2.62396e-014
rhumerus -44.2081 -5.22534 -42.3439
rradius 33.0119
rwrist -48.5235
rhand -9.81628 20.1619
rfingers 7.12502
rthumb 16.1606 -9.18439
lclavicle -5.77966e-014 2.62396e-014
lhumerus -50.5739 10.5997 36.6494
lradius 32.6448
lwrist -1.22542
lhand 21.9317 37.4323
lfingers 7.12502
lthumb 46.3302 60.3881
rfemur -23.7269 15.3582 22.2591
rtibia 26.62
rfoot -8.65685 -38.299
rtoes 17.58
lfemur -21.5928 -9.98435 -18.2791
ltibia 27.7607
lfoot -17.7953 22.7351
ltoes -2.62597
180
root 17.8747 16.4268 -13.9728 13.8986 -33.9246 -1.15947
lowerback -0.785929 0.793485 1.97632
upperback -5.34312 1.15216 2.18275
thorax -5.08657 0.521619 1.11255
lowerneck -7.75373 1.98667 -1.54581
upperneck 9.55206 2.46825 3.51898
head 4.50247 1.33636 1.62956
rclavicle 1.26005e-013 1.98785e-014
rhumerus -45.3638 -6.01092 -38.719
rradius 32.4378
rwrist -48.5212
rhand -12.6348 20.284
rfingers 7.12502
rthumb 13.4452 -9.26208
lclavicle 1.26005e-013 1.98785e-014
lhumerus -52.1311 10.6559 33.078
lradius 32.4016
lwrist -0.724167
lhand 20.3654 39.0912
lfingers 7.12502
lthumb 44.8753 62.6397
rfemur -23.7908 14.9626 22.1318
rtibia 27.0158
rfoot -8.31874 -37.8352
rtoes 16.273
lfemur -21.2892 -10.3566 -18.5133
ltibia 27.5938
lfoot -18.2696 23.0989
ltoes -1.11497
181
root 17.8774 16.4198 -13.9352 13.8787 -34.1748 -0.939262
lowerback -0.869344 0.771098 1.71571
upperback -5.3406 1.1144 2.20521
thorax -5.04106 0.515181 1.2839
lowerneck -7.97812 2.10714 -1.53006
upperneck 9.45214 2.62547 3.58903
head 4.50661 1.41964 1.66313
rclavicle -9.96408e-015 -3.57812e-014
rhumerus -46.613 -6.52216 -35.0944
rradius 31.9667
rwrist -48.7668
rhand -15.1553 20.643
rfingers 7.12502
rthumb 11.015 -9.04803
lclavicle -9.96408e-015 -3.57812e-014
lhumerus -53.6502 10.7524 29.4057
lradius 32.0358
lwrist -0.543124
lhand 18.9281 41.0743
lfingers 7.12502
lthumb 43.5353 65.1283
rfemur -24.1204 14.5445 21.8696
rtibia 27.5244
rfoot -8.19856 -37.379
rtoes 14.7211
lfemur -21.187 -10.4524 -18.8435
ltibia 27.442
lfoot -18.734 23.3269
ltoes 0.313097
182
root 17.88 16.4163 -13.8958 13.9353 -34.2925 -0.702611
lowerback -0.992881 0.725201 1.5033
upperback -5.3845 1.04581 2.22183
thorax -5.01994 0.490624 1.42378
lowerneck -8.16171 2.17513 -1.48799
upperneck 9.19013 2.72228 3.56744
head 4.44651 1.46894 1.65236
rclavicle 2.00027e-014 -2.78299e-014
rhumerus -48.0635 -6.38215 -31.6493
rradius 31.657
rwrist -49.5117
rhand -17.3525 21.024
rfingers 7.12502
rthumb 8.89519 -8.76854
lclavicle 2.00027e-014 -2.78299e-014
lhumerus -55.1284 11.1509 25.3354
lradius 31.362
lwrist -0.865081
lhand 17.5446 42.3841
lfingers 7.12502
lthumb 42.2412 66.8928
rfemur -24.5487 13.8511 21.6367
rtibia 28.1255
rfoot -8.45923 -36.8394
rtoes 13.3293
lfemur -21.1889 -10.5034 -19.1695
ltibia 27.3174
lfoot -18.8334 23.5049
ltoes -0.0579459
